<svg width="1920" height="1080" viewBox="0 0 1920 1080" fill="none" xmlns="http://www.w3.org/2000/svg">
<g clip-path="url(#clip0_1870_17687)">
<path d="M1552.15 406.103C1591.98 431.145 1654.92 506.831 1588.02 609.241M1552.15 406.103C1597.22 473.024 1594.85 569.412 1588.02 609.241M1552.15 406.103C1543.05 439.104 1537.48 525.932 1588.02 609.241M1552.15 406.103C1584.93 479.85 1589.72 572.256 1588.02 609.241M1651.18 573.403C1629.98 598.549 1591.94 657.794 1587.52 715.815M1651.18 573.403C1636.92 622.537 1606.48 719.061 1591.27 739.161M1651.18 573.403C1649.35 609.375 1634.81 692.887 1591.27 739.161M1651.18 573.403C1688.82 653.376 1643.92 707.85 1605.66 732.697C1600.71 735.911 1595.87 738.63 1591.33 740.844M1587.52 715.815C1586.83 724.744 1586.95 733.644 1588.04 742.387M1587.52 715.815C1579.09 600.105 1490.78 571.142 1444.63 571.666M1587.52 715.815C1588.13 724.209 1588.32 733.059 1588.04 742.387M1588.04 742.387C1589.54 741.636 1590.6 741.087 1591.33 740.686M1588.04 742.387C1538.87 635.863 1471.94 584.188 1444.63 571.666M1588.04 742.387C1548.77 689.464 1465.12 581.228 1444.63 571.666M1588.04 742.387C1503.37 698.675 1457.15 610.36 1444.63 571.666M1588.04 742.387C1589.12 741.903 1590.22 741.389 1591.33 740.844M1591.27 739.161C1591.06 739.437 1591.11 739.571 1591.29 739.633M1591.27 739.161C1591.27 739.318 1591.28 739.475 1591.29 739.633M1591.29 739.633C1591.93 739.86 1594.25 739.086 1591.33 740.686M1591.29 739.633C1591.3 739.982 1591.31 740.334 1591.33 740.686M1591.33 740.686C1591.33 740.739 1591.33 740.791 1591.33 740.844M1434.36 407.793C1392.26 421.443 1293.03 445.326 1232.94 431.662C1247.16 415.163 1307.36 387.29 1434.36 407.793ZM1434.36 407.793C1409.89 389.012 1335.01 365.785 1231.23 423.125C1257.4 384.438 1334.66 327.209 1434.36 407.793ZM1354.12 334.377C1313.16 354.855 1218.59 390.005 1168.06 366.783M1354.12 334.377C1309.06 327.542 1211.3 353.133 1168.06 366.783M1354.12 334.377C1333.64 325.27 1267.74 319.001 1168.06 366.783M1354.12 334.377C1251.69 270.179 1187.4 329.232 1168.06 366.783M1215.84 274.61C1194.23 303.057 1133.24 364.045 1062.23 380.422C1062.46 379.485 1062.72 378.528 1062.99 377.554M1215.84 274.61C1215.67 274.585 1215.49 274.561 1215.31 274.536M1215.84 274.61C1215.13 274.712 1214.41 274.826 1213.69 274.954M1215.84 274.61C1215.72 274.546 1215.54 274.522 1215.31 274.536M1062.99 377.554C1074.53 335.989 1119.6 261.529 1215.31 274.536M1062.99 377.554C1093.56 346.551 1165.85 283.353 1213.69 274.954M1062.99 377.554C1108.55 344.37 1197.95 280.725 1213.69 274.954M1215.31 274.536C1214.91 274.562 1214.37 274.703 1213.69 274.954M1080.99 286.539C1053.11 295.07 980.623 307.009 913.706 286.515M1080.99 286.539C1007.31 229.246 938.769 262.651 913.706 286.515M1080.99 286.539C1080.83 286.461 1080.66 286.382 1080.49 286.304M913.706 286.515C941.411 273.359 1013.46 254.959 1080.49 286.304M913.706 286.515C956.156 280.295 1048.6 271.605 1080.49 286.304M1060.51 300.192C1063.36 315.556 1046.18 356.863 954.69 399.183M1060.51 300.192C1060.02 299.702 1059.03 299.813 1057.61 300.447M1060.51 300.192C1059.57 300.259 1058.61 300.344 1057.61 300.447M1060.51 300.192C1056.14 302.601 1050.97 305.648 1045.3 309.236M954.69 399.183C979.076 373.115 1022.23 328.527 1045.3 309.236M954.69 399.183C962.633 327.612 1024.83 303.86 1057.61 300.447M954.69 399.183C969.654 363.491 1014.8 328.531 1045.3 309.236M1045.3 309.236C1050.64 304.768 1054.91 301.657 1057.61 300.447M952.973 325.782C942.165 349.109 906.553 400.883 850.567 421.359M952.973 325.782C952.866 325.775 952.76 325.768 952.653 325.761M952.973 325.782C950.904 326.774 948.668 327.897 946.293 329.142M952.973 325.782C952.877 325.763 952.771 325.756 952.653 325.761M850.567 421.359C850.562 387.263 870.983 320.482 952.653 325.761M850.567 421.359C851.122 419.58 851.755 417.81 852.46 416.051M952.653 325.761C951.498 325.81 949.301 327.018 946.293 329.142M946.293 329.142C917.331 344.324 867.814 377.733 852.46 416.051M946.293 329.142C927.764 342.222 878.467 390.044 852.46 416.051M1457.55 824.99C1468.36 803.938 1473.24 753.298 1406.32 719.148M1457.55 824.99C1454.81 781.29 1422.26 736.221 1406.32 719.148M1457.55 824.99C1454.51 822.334 1451.65 819.63 1448.94 816.89M1457.55 824.99C1453.45 809.968 1421.69 748.17 1406.32 719.148M1457.55 824.99C1414.31 819.294 1323.72 809.266 1307.33 814.726M1457.55 824.99C1401.56 848.197 1334.08 827.817 1307.33 814.726M1457.55 824.99C1422.84 814.174 1344.2 796.979 1307.33 814.726M1457.55 824.99C1454.67 822.109 1451.8 819.412 1448.94 816.89M1406.32 719.148C1405.27 737.151 1412.69 780.184 1448.94 816.89M1448.94 816.89C1385.44 760.823 1328.56 791.315 1307.33 814.726M1397.8 765.236C1390.39 731.664 1357.16 669.297 1283.42 688.405M1397.8 765.236C1347.27 758.401 1300.49 711.167 1283.42 688.405M1397.8 765.236C1381.86 744.75 1336.68 700.703 1283.42 688.405M1397.8 765.236C1364.78 732.696 1307.79 700.457 1283.42 688.405M1153.77 691.881C1159.02 696.23 1254.71 722.052 1302.2 734.496C1238.1 749.489 1176.61 712.385 1153.77 691.881ZM1153.77 691.881C1153.74 691.853 1153.71 691.826 1153.68 691.8M1340.95 757.297C1341.12 757.094 1341.3 756.893 1341.46 756.693C1341.41 756.849 1341.24 757.051 1340.95 757.297ZM1340.95 757.297C1322.22 779.081 1266.57 820.132 1215.15 814.713C1252.92 797.749 1333.65 763.521 1340.95 757.297ZM1235.63 743.022C1225.96 766.349 1196.38 819.831 1155.41 847.137C1157.33 825.87 1176.06 775.273 1235.63 743.022ZM1235.63 743.022C1201.49 745.293 1137.31 768.954 1153.71 845.43C1155.81 819.43 1175.13 762.548 1235.63 743.022ZM1182.71 734.479C1150.28 744.147 1077.22 759.386 1044.44 742.994C1078.01 732.188 1152.66 715.356 1182.71 734.479ZM1182.71 734.479C1162.22 709.44 1106.91 675.065 1049.56 737.874C1079.64 726.99 1148.38 711.074 1182.71 734.479ZM1162.23 748.132C1157.68 770.892 1138.34 822.554 1097.38 847.129M1162.23 748.132C1160.84 748.964 1159.23 750.341 1157.45 752.176M1162.23 748.132C1134.92 751.542 1083.71 776.116 1097.38 847.129M1162.23 748.132C1160.77 749.299 1159.17 750.651 1157.45 752.176M1097.38 847.129C1111.69 820.546 1141.61 768.424 1157.45 752.176M1097.38 847.129C1107.36 804.669 1139.05 768.494 1157.45 752.176M1072.21 765.128C1073.85 765.103 1075.41 765.126 1076.88 765.19C1075.52 764.876 1073.96 764.867 1072.21 765.128ZM1072.21 765.128C1044.59 765.542 994.181 779.318 981.298 833.456C1003.89 810.863 1051.13 768.279 1072.21 765.128ZM1056.42 898.333C1082.36 858.734 1082.01 803.314 1078.59 780.553C1069.03 792.842 1059.82 864.193 1056.42 898.333ZM1056.42 898.333C1040.48 882.399 1022.61 835.852 1078.59 777.139C1066.64 799.328 1045.48 854.632 1056.42 898.333ZM1018.85 850.532C1005.77 869.307 973.115 909.929 947.171 922.215M1018.85 850.532C958.052 857.776 945.699 899.704 947.072 920.962M1018.85 850.532C999.064 859.622 959.163 884.801 948.783 916.148M1018.85 850.532C997.249 867.225 957.505 900.362 948.783 916.148M947.171 922.215C947.132 921.806 947.099 921.388 947.072 920.962M947.171 922.215C947.58 920.169 948.121 918.146 948.783 916.148M947.171 922.215C947.075 921.834 947.044 921.415 947.072 920.962M947.072 920.962C947.155 919.637 947.752 918.013 948.783 916.148M1020.56 862.481C1025.69 881.259 1031.84 926.324 1015.46 956.365M1020.56 862.481C1013.74 880.233 1014.31 932.467 1015.46 956.365M1020.56 862.481C1018.27 865.087 1016.18 867.663 1014.28 870.208M1020.56 862.481C1017.89 863.783 1015.83 866.483 1014.28 870.208M1015.46 956.365C1001.56 944.531 983.327 911.575 1014.28 870.208M1015.46 956.365C1011.32 933.002 1006.51 888.816 1014.28 870.208M979.604 923.927C986.434 937.584 995.316 975.139 976.203 1016.1M979.604 923.927C978.696 924.835 977.819 925.743 976.974 926.65M979.604 923.927C978.655 924.73 977.779 925.641 976.974 926.65M979.604 923.927C975.508 928.023 975.63 987.085 976.203 1016.1M976.203 1016.1C961.191 1002.2 940.96 965.27 976.974 926.65M976.203 1016.1C970.276 992.945 962.713 944.501 976.974 926.65M1768.93 397.594C1767.79 413.526 1773.72 458.364 1806.5 510.261M1768.93 397.594C1770.4 398.411 1771.95 400.15 1773.56 402.638M1768.93 397.594C1793.97 402.149 1836.53 431.061 1806.5 510.261M1768.93 397.594C1770.54 399.2 1772.08 400.884 1773.56 402.638M1806.5 510.261C1799.98 479.706 1785.35 420.931 1773.56 402.638M1806.5 510.261C1806.5 486.563 1799.76 433.703 1773.56 402.638M1857.7 469.3C1863.97 494.906 1862.15 553.627 1804.8 583.662M1857.7 469.3C1818.1 487.047 1805.94 552.936 1804.8 583.662M1857.7 469.3C1857.61 469.908 1857.51 470.548 1857.39 471.218M1857.7 469.3C1857.7 469.753 1857.6 470.397 1857.39 471.218M1804.8 583.662C1839.15 538.739 1853.9 491.257 1857.39 471.218M1804.8 583.662C1821.46 550.871 1853.87 485.27 1857.39 471.218M1758.7 465.877C1772.93 484.655 1801.38 534.5 1801.39 583.661M1758.7 465.877C1735.82 548.035 1776.35 578.276 1800.39 583.459M1758.7 465.877C1766.76 498.553 1783.41 558.423 1795.06 577.589M1758.7 465.877C1760.81 493.186 1770.96 550.644 1795.06 577.589M1801.39 583.661C1801.06 583.599 1800.73 583.531 1800.39 583.459M1801.39 583.661C1801.07 583.661 1800.74 583.593 1800.39 583.459M1801.39 583.661C1799.18 581.873 1797.07 579.837 1795.06 577.589M1800.39 583.459C1798.8 582.833 1797 580.772 1795.06 577.589M1856.01 552.943C1855.9 553.432 1855.78 553.931 1855.66 554.44M1856.01 552.943C1856.02 552.985 1856.03 553.028 1856.04 553.07M1856.01 552.943C1838.94 570.011 1802.08 620.533 1791.16 686.08M1856.01 552.943C1856.03 552.964 1856.04 553.007 1856.04 553.07M1855.66 554.44C1848.44 584.769 1826.08 651.166 1791.16 686.08M1855.66 554.44C1851.36 566.327 1811.8 645.316 1791.16 686.08M1855.66 554.44C1855.91 553.751 1856.04 553.288 1856.04 553.07M1791.16 686.08C1820.16 671.867 1873.71 625.377 1856.04 553.07M1733.1 542.683C1751.31 564.308 1787.06 623.262 1784.33 686.079M1733.1 542.683C1708.54 638.272 1757.02 678.109 1784.33 686.079M1733.1 542.683C1743.82 580.935 1766.61 655.941 1780.07 679.936M1733.1 542.683C1735.29 568.874 1747.74 631.483 1780.07 679.936M1784.33 686.079C1783.06 684.804 1781.63 682.711 1780.07 679.936M1784.33 686.079C1782.88 684.06 1781.45 682.011 1780.07 679.936M1765.57 783.375C1796.28 780.276 1856.57 751.839 1854.4 663.071M1765.57 783.375C1779.22 728.753 1830.42 678.689 1854.32 660.484M1765.57 783.375C1790.65 752.921 1834.62 697.646 1849.54 672.835M1765.57 783.375C1807.23 756.002 1836.35 704.155 1849.54 672.835M1854.4 663.071C1854.38 662.214 1854.35 661.352 1854.32 660.484M1854.4 663.071C1853.78 665.256 1852.08 668.602 1849.54 672.835M1854.4 663.071C1854.76 661.793 1854.75 660.913 1854.32 660.484M1854.32 660.484C1853.08 664.061 1851.48 668.225 1849.54 672.835M1717.75 629.738C1725.53 671.674 1743.19 754.029 1756.6 776.764M1717.75 629.738C1769.66 700.757 1767.84 760.615 1760.45 781.667M1717.75 629.738C1700.69 668.428 1685.34 752.979 1760.45 781.667M1717.75 629.738C1716.11 659.953 1721.79 730.161 1756.6 776.764M1756.6 776.764C1757.93 779.016 1759.22 780.683 1760.45 781.667M1756.6 776.764C1757.85 778.429 1759.13 780.065 1760.45 781.667M1828.73 778.263C1825.32 815.817 1798.36 889.214 1717.79 882.374M1828.73 778.263C1750.9 820.586 1722.34 865.305 1717.79 882.374M1828.73 778.263C1804.27 812.969 1747.83 882.379 1717.79 882.374M1828.73 778.263C1778.21 836.977 1733.72 872.135 1717.79 882.374M1688.75 716.791C1705.25 745.812 1732.8 818.876 1710.96 878.959M1688.75 716.791C1688.54 717.723 1688.36 718.707 1688.21 719.74M1688.75 716.791C1663.71 744.099 1633.11 814.765 1710.96 878.959M1688.75 716.791C1688.56 717.736 1688.38 718.72 1688.21 719.74M1710.96 878.959C1701.02 839.206 1683.03 753.487 1688.21 719.74M1710.96 878.959C1679.13 828.574 1682.27 753.737 1688.21 719.74M1651.21 802.136C1660.88 837.984 1673.41 922.653 1646.11 974.542M1651.21 802.136C1636.19 869.048 1641.55 944.953 1646.11 974.542M1651.21 802.136C1639.45 815.671 1625.7 836.563 1617.35 860.255C1611.17 877.786 1607.95 896.85 1610.69 915.601C1613.73 936.486 1624.16 956.982 1646.11 974.542M1651.21 802.136C1638.69 836.274 1620.15 918.549 1646.11 974.542M1786.07 892.626C1757.05 897.743 1689.12 921.973 1649.52 977.956M1786.07 892.626C1756.22 982.218 1683.4 987.011 1650.11 978.117M1786.07 892.626C1748.78 919.702 1676.06 970.264 1654.69 977.33M1786.07 892.626C1761.38 918.412 1701.77 970.016 1654.69 977.33M1649.52 977.956C1649.72 978.01 1649.92 978.064 1650.11 978.117M1649.52 977.956C1649.7 978.03 1649.89 978.084 1650.11 978.117M1649.52 977.956C1651.23 977.811 1652.95 977.601 1654.69 977.33M1650.11 978.117C1651.14 978.271 1652.69 977.991 1654.69 977.33M1521.43 470.964C1485.01 406.093 1409.76 273.96 1400.2 264.4C1403.62 308.782 1432.66 412.231 1521.43 470.964ZM1529.96 462.43C1489.56 395.852 1409.42 263.377 1412.15 266.109C1415.57 269.523 1529.94 284.902 1529.96 462.43ZM1384.85 334.379C1348.43 316.166 1265 263.009 1222.66 196.089C1257.94 209.75 1339.77 256.533 1384.85 334.379ZM1386.55 322.43C1376.31 301.945 1332.26 248.339 1238.02 197.798C1275.58 189.837 1357.86 203.619 1386.55 322.43ZM1243.15 254.13C1206.73 240.468 1115.8 216.216 1043.43 228.496C1077.65 208.104 1165.51 184.681 1243.15 254.13ZM1033.19 235.322C1079.85 230.777 1187.5 229.882 1244.86 262.665C1197.07 264.934 1087.82 262.642 1033.19 235.322ZM1300.49 725.961C1288.54 699.216 1243.13 654.259 1157.1 688.386C1203.76 698.635 1297.76 720.498 1300.49 725.961ZM1338.05 753.279C1313.01 740.757 1247.24 737.561 1211.74 811.298C1252.14 794.803 1339.42 757.376 1338.05 753.279ZM1085.41 763.484C1070.05 783.397 1027.39 827.659 979.593 845.405C995.264 824.666 1038.37 779.247 1085.41 763.484ZM1340.48 457.276C1432.65 419.736 1500.94 470.955 1538.51 539.241L1340.48 457.276ZM1337.07 467.518C1376.34 517.027 1497.54 549.477 1535.09 542.655L1337.07 467.518Z" stroke="url(#paint0_linear_1870_17687)" stroke-opacity="0.5" stroke-width="5" stroke-linecap="round"/>
</g>
<defs>
<linearGradient id="paint0_linear_1870_17687" x1="741.666" y1="195.181" x2="1725.41" y2="989.951" gradientUnits="userSpaceOnUse">
<stop stop-color="white"/>
<stop offset="1" stop-color="white" stop-opacity="0.15"/>
</linearGradient>
<clipPath id="clip0_1870_17687">
<rect width="1920" height="1080" fill="white"/>
</clipPath>
</defs>
</svg>
